<?xml version="1.0" encoding="UTF-8" standalone="yes"?>
<svg version="1.2" baseProfile="tiny-ps" viewBox="0 0 512 512" width="512" height="512" xmlns="http://www.w3.org/2000/svg">
  <title>bimi-svg-tiny-12-ps</title>
  <desc>Lexi Translation Lab brand logo</desc>
  <rect x="0" y="0" width="512" height="512" fill="#000000"/>
  <g transform="translate(0,56.802) scale(0.389058)">
    <g transform="translate(0.000000,1024.000000) scale(0.100000,-0.100000)" fill="#ffffff" stroke="none">
      <path d="M4530 9285 c0 -12 219 -328 675 -975 88 -124 296 -421 463 -660 308&#xA;-439 348 -493 363 -484 14 8 262 357 266 374 4 15 -68 123 -307 460 -151 214&#xA;-800 1141 -858 1228 l-43 62 -279 0 c-154 0 -280 -2 -280 -5z"/>
      <path d="M8034 9103 c-48 -71 -133 -193 -189 -273 -56 -80 -186 -266 -290&#xA;-415 -212 -305 -457 -653 -690 -985 -87 -124 -199 -283 -248 -355 -94 -135&#xA;-591 -850 -707 -1015 -67 -96 -164 -235 -457 -655 -88 -126 -256 -367 -373&#xA;-535 -118 -168 -280 -399 -360 -515 -220 -316 -477 -681 -537 -762 -29 -40&#xA;-53 -77 -53 -83 0 -11 3722 -15 3733 -4 4 4 -3 20 -14 35 l-20 29 -1764 2&#xA;c-970 2 -1766 6 -1770 10 -3 3 15 37 42 75 27 37 86 124 133 193 46 69 147&#xA;215 225 325 78 110 228 326 335 480 107 154 232 334 278 400 47 66 141 201&#xA;210 300 69 99 180 258 246 353 67 95 207 296 311 447 105 150 280 403 390 562&#xA;109 158 285 410 390 558 105 149 255 362 333 475 79 113 255 365 392 560 496&#xA;707 630 901 630 913 0 4 -20 7 -44 7 l-43 0 -89 -127z"/>
      <path d="M8293 9208 c-11 -13 -127 -178 -258 -368 -294 -425 -357 -516 -421&#xA;-605 -60 -83 -419 -596 -693 -990 -107 -154 -229 -329 -271 -390 -42 -60 -169&#xA;-243 -282 -405 -112 -162 -232 -333 -265 -380 -32 -47 -118 -168 -189 -270&#xA;-72 -102 -253 -363 -404 -580 -150 -217 -294 -424 -320 -460 -26 -36 -120&#xA;-172 -211 -303 -250 -361 -346 -499 -452 -650 -53 -75 -97 -142 -97 -147 0 -7&#xA;570 -10 1665 -10 930 0 1665 4 1665 9 0 4 -9 20 -21 35 l-20 26 -1576 0&#xA;c-1413 0 -1575 2 -1569 15 3 9 88 134 189 278 101 144 271 388 377 542 107&#xA;154 282 406 390 560 220 314 598 855 730 1045 48 69 186 267 306 440 121 173&#xA;321 459 443 635 123 176 324 464 447 640 124 176 268 383 321 460 53 77 160&#xA;230 238 340 206 292 365 523 371 540 10 26 -68 20 -93 -7z"/>
      <path d="M8473 9208 c-11 -13 -96 -133 -188 -268 -200 -290 -416 -601 -605&#xA;-870 -75 -107 -206 -294 -290 -415 -84 -121 -190 -272 -235 -335 -45 -63 -203&#xA;-289 -351 -503 -148 -213 -315 -453 -372 -535 -219 -313 -322 -460 -452 -647&#xA;-74 -107 -210 -301 -301 -432 -267 -382 -548 -787 -757 -1088 -107 -154 -201&#xA;-287 -208 -296 -8 -9 -11 -19 -7 -22 10 -10 2953 -8 2953 2 0 4 -9 19 -20 33&#xA;l-19 25 -1381 5 c-760 3 -1383 8 -1386 11 -5 5 61 102 372 547 239 341 480&#xA;688 622 895 80 116 186 269 237 340 51 72 183 261 295 420 112 160 240 342&#xA;284 405 45 63 180 257 301 431 351 507 574 827 640 919 34 47 117 166 186 265&#xA;69 99 199 286 289 415 402 577 490 704 490 712 0 4 -17 8 -38 8 -27 0 -44 -7&#xA;-59 -22z"/>
      <path d="M8560 9067 c-63 -89 -175 -250 -249 -357 -74 -107 -175 -253 -226&#xA;-325 -179 -254 -354 -504 -550 -785 -109 -157 -327 -469 -485 -695 -158 -225&#xA;-343 -491 -411 -590 -69 -99 -208 -299 -310 -445 -102 -146 -322 -461 -489&#xA;-700 -289 -415 -400 -574 -605 -865 -50 -71 -119 -171 -154 -222 -34 -50 -69&#xA;-97 -77 -103 -48 -41 -75 -40 1265 -40 704 0 1282 4 1285 8 3 5 -7 23 -22 41&#xA;l-27 31 -1183 3 -1183 2 28 40 c16 22 101 144 188 270 88 127 245 352 350 500&#xA;106 149 231 329 280 400 49 72 152 220 230 330 78 110 236 337 352 505 251&#xA;364 465 673 629 905 66 94 187 267 269 385 82 118 253 364 380 545 127 182&#xA;280 400 340 485 59 85 212 304 340 486 127 181 235 336 239 342 5 9 -6 12 -41&#xA;11 l-48 0 -115 -162z"/>
      <path d="M7200 5923 c-58 -81 -120 -168 -139 -195 l-35 -48 80 -115 c43 -63&#xA;189 -273 323 -467 134 -194 438 -633 674 -975 l431 -623 277 0 c167 0 280 4&#xA;284 10 3 5 -30 60 -73 122 -80 115 -122 176 -723 1038 -190 272 -464 666 -609&#xA;875 -361 521 -364 525 -375 525 -5 0 -57 -66 -115 -147z"/>
      <path d="M4604 2996 c-3 -8 -4 -27 -2 -43 3 -28 4 -28 75 -31 l73 -3 2 -202 3&#xA;-202 41 -3 c54 -4 54 -4 54 225 l0 182 71 3 c80 3 97 16 85 61 l-6 27 -196 0&#xA;c-159 0 -196 -3 -200 -14z"/>
      <path d="M5177 2973 c-9 -49 -9 -241 0 -366 l6 -98 41 3 41 3 5 80 5 80 40 3&#xA;c39 2 42 0 110 -83 l70 -85 58 0 c68 0 68 1 -17 98 -31 35 -56 67 -56 72 0 5&#xA;13 16 29 25 101 52 106 208 8 273 -39 26 -47 27 -187 30 l-147 4 -6 -39z m288&#xA;-78 c31 -30 33 -77 5 -105 -18 -18 -31 -20 -108 -18 l-87 3 -3 59 c-4 86 -5&#xA;86 88 86 73 0 83 -3 105 -25z"/>
      <path d="M5991 2997 c-6 -8 -18 -31 -27 -53 -9 -21 -54 -126 -101 -231 -46&#xA;-106 -82 -197 -78 -203 7 -12 65 -13 81 -2 6 4 21 26 33 50 l21 42 129 0 129&#xA;0 12 -35 c6 -19 18 -42 27 -50 18 -19 82 -20 89 -2 5 13 -187 458 -208 485&#xA;-14 16 -93 16 -107 -1z m134 -295 c-8 -8 -142 -8 -151 0 -4 4 5 36 19 70 15&#xA;35 31 77 38 93 l11 30 44 -94 c24 -52 42 -96 39 -99z"/>
      <path d="M6487 3003 c-13 -12 -8 -478 5 -491 16 -16 65 -15 75 1 4 6 10 80 13&#xA;162 l5 150 99 -125 c154 -195 193 -229 210 -184 3 9 6 121 6 250 l0 234 -50 0&#xA;-50 0 0 -140 c0 -77 -3 -140 -7 -140 -5 0 -24 22 -43 47 -19 26 -70 91 -113&#xA;145 -70 89 -80 98 -110 98 -19 0 -37 -3 -40 -7z"/>
      <path d="M7170 2988 c-55 -28 -94 -95 -84 -143 15 -71 62 -104 183 -130 90&#xA;-19 109 -29 117 -62 9 -33 -29 -69 -81 -79 -43 -8 -120 19 -138 47 -14 23 -45&#xA;24 -75 3 -29 -20 -28 -27 13 -72 41 -46 88 -62 179 -62 94 0 160 34 187 96 49&#xA;110 -25 194 -191 219 -55 9 -76 19 -90 45 -14 25 -3 48 31 65 43 23 91 18 135&#xA;-11 38 -26 39 -26 71 -9 39 21 41 34 10 63 -59 56 -187 70 -267 30z"/>
      <path d="M7657 2928 c-9 -106 -9 -331 -1 -381 l7 -37 171 2 171 3 0 40 0 40&#xA;-125 5 -125 5 -3 203 -2 202 -44 0 -43 0 -6 -82z"/>
      <path d="M8386 2988 c-8 -13 -31 -61 -51 -108 -21 -47 -64 -145 -96 -217 -32&#xA;-73 -59 -140 -59 -148 0 -10 10 -15 31 -15 44 0 66 15 89 60 l20 40 124 0 124&#xA;0 23 -47 c22 -44 28 -48 63 -51 21 -2 43 1 48 6 8 8 -180 458 -205 490 -5 6&#xA;-29 12 -53 12 -34 0 -47 -5 -58 -22z m102 -197 c19 -45 32 -84 29 -87 -10 -10&#xA;-112 -16 -133 -7 -21 8 -21 9 14 96 20 48 40 86 46 84 5 -2 25 -40 44 -86z"/>
      <path d="M8880 2965 l0 -44 73 -3 72 -3 3 -202 2 -203 45 0 45 0 0 174 c0 95&#xA;3 187 6 204 6 31 7 31 78 34 l71 3 3 43 3 42 -200 0 -201 0 0 -45z"/>
      <path d="M9457 3003 c-9 -8 -9 -440 -1 -470 5 -19 13 -23 44 -23 25 0 40 5 44&#xA;16 8 21 8 378 0 438 -7 45 -7 46 -44 46 -20 0 -40 -3 -43 -7z"/>
      <path d="M9902 3000 c-74 -17 -148 -94 -171 -176 -38 -135 31 -288 145 -322&#xA;61 -18 162 -15 209 7 55 25 120 100 134 156 54 214 -108 385 -317 335z m174&#xA;-120 c36 -34 54 -79 54 -137 0 -60 -25 -111 -70 -141 -49 -33 -146 -28 -186 8&#xA;-35 33 -54 79 -54 135 0 60 19 104 61 139 30 26 38 28 100 24 55 -3 73 -8 95&#xA;-28z"/>
      <path d="M10404 2997 c-2 -7 -3 -118 -2 -247 l3 -235 43 -3 c23 -2 43 -2 44 0&#xA;0 2 4 74 7 162 l6 158 124 -161 c109 -140 128 -161 152 -161 21 0 30 6 34 23&#xA;3 12 4 123 3 247 l-3 225 -45 0 -45 0 -3 -142 c-1 -79 -6 -143 -10 -143 -4 0&#xA;-23 22 -42 47 -19 26 -70 91 -113 145 -71 91 -80 98 -112 98 -20 0 -38 -6 -41&#xA;-13z"/>
      <path d="M2340 2740 l0 -250 175 0 175 0 0 45 0 45 -123 0 -124 0 -6 107 c-4&#xA;58 -7 150 -7 205 l0 98 -45 0 -45 0 0 -250z"/>
      <path d="M2865 2968 c-3 -13 -4 -124 -3 -248 l3 -225 185 0 185 0 0 40 0 40&#xA;-135 5 -135 5 0 50 0 50 125 5 c122 5 124 5 130 30 15 59 -13 70 -182 70 l-78&#xA;0 0 49 c0 60 2 61 156 61 l112 0 5 30 c12 60 12 60 -184 60 -177 0 -179 0&#xA;-184 -22z"/>
      <path d="M3421 2968 c7 -13 39 -62 71 -111 32 -48 61 -93 64 -101 3 -7 -29&#xA;-65 -70 -129 -42 -64 -76 -121 -76 -127 0 -5 21 -10 48 -10 l48 0 59 90 c33&#xA;49 62 90 65 90 3 0 31 -41 64 -90 l59 -90 53 0 c30 0 54 3 54 6 0 3 -36 58&#xA;-80 121 -44 64 -80 122 -80 128 0 6 34 61 75 121 41 60 75 112 75 117 0 4 -22&#xA;7 -49 7 l-49 0 -56 -80 c-31 -44 -61 -80 -66 -80 -5 0 -34 36 -65 80 l-56 80&#xA;-50 0 c-48 0 -49 -1 -38 -22z"/>
      <path d="M4032 2743 l3 -248 40 0 40 0 3 248 2 247 -45 0 -45 0 2 -247z"/>
      <path d="M5802 2003 l-22 -4 2 -247 3 -247 170 0 170 0 3 42 3 42 -123 3 -123&#xA;3 -5 198 c-6 226 -5 224 -78 210z"/>
      <path d="M6537 2001 c-24 -5 -35 -20 -73 -106 -95 -209 -164 -377 -159 -386 4&#xA;-5 24 -9 45 -9 37 0 41 3 65 50 l25 50 125 0 124 0 22 -50 c21 -49 22 -50 65&#xA;-50 23 0 45 4 48 9 6 8 -14 57 -134 326 -80 181 -81 183 -153 166z m71 -213&#xA;c18 -43 32 -82 32 -88 0 -6 -31 -10 -75 -10 -85 0 -86 2 -56 71 11 24 26 62&#xA;35 83 9 22 20 35 25 30 4 -5 22 -44 39 -86z"/>
      <path d="M7048 2003 l-48 -4 0 -244 0 -245 25 -6 c44 -11 278 1 305 15 95 51&#xA;119 153 50 218 l-29 27 25 29 c49 58 21 163 -53 194 -39 16 -187 25 -275 16z&#xA;m222 -96 c17 -8 26 -22 28 -43 5 -47 -17 -58 -112 -59 l-81 0 -3 44 c-2 24 -1&#xA;50 2 57 7 18 131 19 166 1z m10 -202 c16 -8 31 -24 35 -35 18 -56 -33 -84&#xA;-145 -78 l-65 3 -8 35 c-6 22 -5 45 2 63 10 26 13 27 81 27 43 0 82 -6 100&#xA;-15z"/>
      <path d="M3657 993 c-19 -18 -5 -42 26 -48 17 -3 1319 -4 2892 -3 l2860 3 0&#xA;25 0 25 -2886 3 c-1587 1 -2889 -1 -2892 -5z"/>
    </g>
  </g>
</svg>